<svg width="213" height="27" viewBox="0 0 213 27" fill="none" xmlns="http://www.w3.org/2000/svg">
<path d="M18.7393 1.3875C19.1032 0.7125 19.6248 0.375 20.304 0.375H26.9629C27.2297 0.375 27.4602 0.475 27.6543 0.675C27.8483 0.875001 27.9454 1.1125 27.9454 1.3875V25.6125C27.9454 25.8875 27.8483 26.125 27.6543 26.325C27.4602 26.525 27.2297 26.625 26.9629 26.625H20.3768C20.1099 26.625 19.8795 26.525 19.6854 26.325C19.4913 26.125 19.3943 25.8875 19.3943 25.6125V13.9875L16.738 19.3875C16.6652 19.5625 16.4954 19.7625 16.2286 19.9875C15.9617 20.2125 15.6221 20.325 15.2097 20.325H12.7354C12.323 20.325 11.9834 20.2125 11.7165 19.9875C11.4497 19.7625 11.2799 19.5625 11.2071 19.3875L8.55082 13.9875V25.6125C8.55082 25.8875 8.45379 26.125 8.25972 26.325C8.06565 26.525 7.8352 26.625 7.56836 26.625H0.982219C0.715377 26.625 0.484923 26.525 0.290856 26.325C0.0967892 26.125 -0.000244141 25.8875 -0.000244141 25.6125V1.3875C-0.000244141 1.1125 0.0967892 0.875001 0.290856 0.675C0.484923 0.475 0.715377 0.375 0.982219 0.375H7.64113C8.32037 0.375 8.84192 0.7125 9.2058 1.3875L13.9726 10.3875L18.7393 1.3875Z" fill="#CC0A0A"/>
<path d="M56.6773 19.3125C56.9441 19.3125 57.1746 19.4125 57.3686 19.6125C57.5627 19.8125 57.6597 20.05 57.6597 20.325V25.6125C57.6597 25.8875 57.5627 26.125 57.3686 26.325C57.1746 26.525 56.9441 26.625 56.6773 26.625H33.6804C33.4135 26.625 33.1831 26.525 32.989 26.325C32.7949 26.125 32.6979 25.8875 32.6979 25.6125V1.3875C32.6979 1.1125 32.7949 0.875001 32.989 0.675C33.1831 0.475 33.4135 0.375 33.6804 0.375H56.3134C56.5803 0.375 56.8107 0.475 57.0048 0.675C57.1988 0.875001 57.2959 1.1125 57.2959 1.3875V6.675C57.2959 6.95 57.1988 7.1875 57.0048 7.3875C56.8107 7.5875 56.5803 7.6875 56.3134 7.6875H42.1587V10.05H54.3121C54.5789 10.05 54.8094 10.15 55.0035 10.35C55.1975 10.55 55.2946 10.7875 55.2946 11.0625V15.9375C55.2946 16.2125 55.1975 16.45 55.0035 16.65C54.8094 16.85 54.5789 16.95 54.3121 16.95H42.1587V19.3125H56.6773Z" fill="#CC0A0A"/>
<path d="M90.2487 25.4625C90.2973 25.5625 90.3215 25.675 90.3215 25.8C90.3215 26.025 90.2366 26.225 90.0668 26.4C89.9213 26.55 89.7393 26.625 89.521 26.625H81.261C80.9214 26.625 80.6061 26.5375 80.315 26.3625C80.0481 26.1875 79.854 25.9625 79.7328 25.6875L76.5307 18.2625H73.4741V25.6125C73.4741 25.8875 73.3771 26.125 73.183 26.325C72.9889 26.525 72.7585 26.625 72.4916 26.625H64.6319C64.3651 26.625 64.1346 26.525 63.9406 26.325C63.7465 26.125 63.6495 25.8875 63.6495 25.6125V1.3875C63.6495 1.1125 63.7465 0.875001 63.9406 0.675C64.1346 0.475 64.3651 0.375 64.6319 0.375H78.7867C80.9699 0.375 82.8742 0.7375 84.4995 1.4625C86.1491 2.1875 87.4105 3.2375 88.2838 4.6125C89.1571 5.9875 89.5938 7.6 89.5938 9.45C89.5938 12.85 88.3202 15.3125 85.7731 16.8375L90.2487 25.4625ZM78.0225 11.325C78.5562 11.325 78.9686 11.15 79.2597 10.8C79.5508 10.425 79.6964 9.9625 79.6964 9.4125C79.6964 8.8625 79.5508 8.3875 79.2597 7.9875C78.9929 7.5625 78.5805 7.35 78.0225 7.35H73.4741V11.325H78.0225Z" fill="#CC0A0A"/>
<path d="M117.125 12.9375C118.071 13.2375 118.884 13.9 119.563 14.925C120.242 15.925 120.582 17.075 120.582 18.375C120.582 21.15 119.708 23.225 117.962 24.6C116.215 25.95 113.668 26.625 110.32 26.625H95.3288C95.0619 26.625 94.8315 26.525 94.6374 26.325C94.4434 26.125 94.3463 25.8875 94.3463 25.6125V1.3875C94.3463 1.1125 94.4434 0.875001 94.6374 0.675C94.8315 0.475 95.0619 0.375 95.3288 0.375H109.957C113.401 0.375 115.936 1.025 117.562 2.325C119.211 3.6 120.036 5.5375 120.036 8.1375V8.25C120.036 9.45 119.721 10.475 119.09 11.325C118.459 12.175 117.804 12.7125 117.125 12.9375ZM110.175 8.475C110.175 8.025 110.041 7.6375 109.775 7.3125C109.532 6.9875 109.168 6.825 108.683 6.825H103.807V10.2375H108.683C109.168 10.2375 109.532 10.0625 109.775 9.7125C110.041 9.3375 110.175 8.925 110.175 8.475ZM109.083 20.175C109.641 20.175 110.054 19.9875 110.32 19.6125C110.612 19.2125 110.757 18.775 110.757 18.3V18.2625C110.757 17.7875 110.599 17.375 110.284 17.025C109.993 16.675 109.593 16.5 109.083 16.5H103.807V20.175H109.083Z" fill="#CC0A0A"/>
<path d="M149.423 19.3125C149.69 19.3125 149.92 19.4125 150.114 19.6125C150.308 19.8125 150.405 20.05 150.405 20.325V25.6125C150.405 25.8875 150.308 26.125 150.114 26.325C149.92 26.525 149.69 26.625 149.423 26.625H126.426C126.159 26.625 125.929 26.525 125.735 26.325C125.54 26.125 125.443 25.8875 125.443 25.6125V1.3875C125.443 1.1125 125.54 0.875001 125.735 0.675C125.929 0.475 126.159 0.375 126.426 0.375H149.059C149.326 0.375 149.556 0.475 149.75 0.675C149.944 0.875001 150.041 1.1125 150.041 1.3875V6.675C150.041 6.95 149.944 7.1875 149.75 7.3875C149.556 7.5875 149.326 7.6875 149.059 7.6875H134.904V10.05H147.058C147.324 10.05 147.555 10.15 147.749 10.35C147.943 10.55 148.04 10.7875 148.04 11.0625V15.9375C148.04 16.2125 147.943 16.45 147.749 16.65C147.555 16.85 147.324 16.95 147.058 16.95H134.904V19.3125H149.423Z" fill="#CC0A0A"/>
<path d="M170.55 9.9C173.218 10.2 175.353 10.6875 176.954 11.3625C178.579 12.0375 179.756 12.925 180.484 14.025C181.211 15.125 181.575 16.5 181.575 18.15C181.575 19.95 181.005 21.525 179.865 22.875C178.749 24.2 177.197 25.225 175.207 25.95C173.218 26.65 170.95 27 168.403 27C165.565 27 163.163 26.6375 161.198 25.9125C159.233 25.1875 157.766 24.225 156.795 23.025C155.825 21.8 155.34 20.4625 155.34 19.0125C155.34 18.7625 155.413 18.5625 155.558 18.4125C155.728 18.2625 155.934 18.1875 156.177 18.1875H163.636C164.146 18.1875 164.558 18.35 164.873 18.675C165.286 19.075 165.747 19.35 166.256 19.5C166.765 19.625 167.481 19.6875 168.403 19.6875C170.707 19.6875 171.86 19.325 171.86 18.6C171.86 18.3 171.702 18.05 171.387 17.85C171.096 17.625 170.562 17.4375 169.786 17.2875C169.034 17.1125 167.918 16.9375 166.438 16.7625C163.115 16.3625 160.567 15.5125 158.797 14.2125C157.026 12.8875 156.14 11.025 156.14 8.625C156.14 6.925 156.638 5.425 157.632 4.125C158.627 2.825 160.034 1.8125 161.853 1.0875C163.697 0.3625 165.831 0 168.257 0C170.78 0 172.988 0.4125 174.88 1.2375C176.772 2.0375 178.215 3.0375 179.21 4.2375C180.205 5.4375 180.702 6.6125 180.702 7.7625C180.702 8.0125 180.617 8.2125 180.447 8.3625C180.302 8.5125 180.095 8.5875 179.829 8.5875H172.005C171.593 8.5875 171.217 8.4375 170.877 8.1375C170.61 7.8875 170.295 7.6875 169.931 7.5375C169.567 7.3875 169.009 7.3125 168.257 7.3125C166.632 7.3125 165.819 7.6625 165.819 8.3625C165.819 8.7375 166.135 9.0375 166.765 9.2625C167.396 9.4625 168.658 9.675 170.55 9.9Z" fill="#CC0A0A"/>
<path d="M212.017 0.375C212.284 0.375 212.515 0.475 212.709 0.675C212.903 0.875001 213 1.1125 213 1.3875V7.425C213 7.7 212.903 7.9375 212.709 8.1375C212.515 8.3375 212.284 8.4375 212.017 8.4375H204.194V25.6125C204.194 25.8875 204.097 26.125 203.903 26.325C203.709 26.525 203.478 26.625 203.212 26.625H195.716C195.449 26.625 195.218 26.525 195.024 26.325C194.83 26.125 194.733 25.8875 194.733 25.6125V8.4375H186.91C186.643 8.4375 186.413 8.3375 186.219 8.1375C186.024 7.9375 185.927 7.7 185.927 7.425V1.3875C185.927 1.1125 186.024 0.875001 186.219 0.675C186.413 0.475 186.643 0.375 186.91 0.375H212.017Z" fill="#CC0A0A"/>
</svg>
