<svg width="25" height="24" viewBox="0 0 25 24" fill="none" xmlns="http://www.w3.org/2000/svg">
<path d="M16.0874 14H15.2974L15.0174 13.73C16.0313 12.554 16.5885 11.0527 16.5874 9.5C16.5874 8.21442 16.2062 6.95772 15.492 5.8888C14.7777 4.81988 13.7626 3.98676 12.5748 3.49479C11.3871 3.00282 10.0802 2.87409 8.81932 3.1249C7.55844 3.3757 6.40025 3.99477 5.49121 4.90381C4.58217 5.81285 3.9631 6.97104 3.7123 8.23192C3.4615 9.49279 3.59022 10.7997 4.08219 11.9874C4.57416 13.1752 5.40728 14.1903 6.4762 14.9046C7.54512 15.6188 8.80183 16 10.0874 16C11.6974 16 13.1774 15.41 14.3174 14.43L14.5874 14.71V15.5L19.5874 20.49L21.0774 19L16.0874 14ZM10.0874 14C7.59741 14 5.58741 11.99 5.58741 9.5C5.58741 7.01 7.59741 5 10.0874 5C12.5774 5 14.5874 7.01 14.5874 9.5C14.5874 11.99 12.5774 14 10.0874 14Z" fill="#ABAFB3"/>
</svg>
